HIERARCHY
ROOT ui
{
	 OFFSET 0 0 0
	 CHANNELS 3 XPosition YPosition Z Position
	 EndSite
	 {
	 OFFSET 0 -1 0
	 }
}
ROOT li
{
	 OFFSET 0 0 0
	 CHANNELS 3 XPosition YPosition Z Position
	 EndSite
	 {
	 OFFSET 0 -1 0
	 }
}
ROOT ul
{
	 OFFSET 0 0 0
	 CHANNELS 3 XPosition YPosition Z Position
	 EndSite
	 {
	 OFFSET 0 -1 0
	 }
}
ROOT ll
{
	 OFFSET 0 0 0
	 CHANNELS 3 XPosition YPosition Z Position
	 EndSite
	 {
	 OFFSET 0 -1 0
	 }
}
ROOT tt
{
	 OFFSET 0 0 0
	 CHANNELS 3 XPosition YPosition Z Position
	 EndSite
	 {
	 OFFSET 0 -1 0
	 }
}
ROOT tb
{
	 OFFSET 0 0 0
	 CHANNELS 3 XPosition YPosition Z Position
	 EndSite
	 {
	 OFFSET 0 -1 0
	 }
}
ROOT td
{
	 OFFSET 0 0 0
	 CHANNELS 3 XPosition YPosition Z Position
	 EndSite
	 {
	 OFFSET 0 -1 0
	 }
}
ROOT v
{
	 OFFSET 0 0 0
	 CHANNELS 3 XPosition YPosition Z Position
	 EndSite
	 {
	 OFFSET 0 -1 0
	 }
}
ROOT bn
{
	 OFFSET 0 0 0
	 CHANNELS 3 XPosition YPosition Z Position
	 EndSite
	 {
	 OFFSET 0 -1 0
	 }
}
MOTION
Frames: 16
Frame Time: 0.002
-0.007333823204040527	0.003463157892227173	0		0.6690940551757812	-2.505399169921875	0		-0.942037353515625	0.17175833129882812	0		-0.23856825256347655	-2.897544677734375	0		1.7358193359375	-0.2093211669921875	0		3.300447021484375	0.316505126953125	0		4.60482763671875	0.6860126342773437	0		6.00060107421875	0.558231689453125	0		-0.32332305908203124	5.919548828125	0		
0.014569065093994141	-5.823339819908142E-4	0		0.7090230712890625	-2.502720947265625	0		-0.9401988525390625	0.16302476501464844	0		-0.3202822570800781	-2.8681064453125	0		1.7357752685546874	-0.20910374450683594	0		3.270435302734375	0.318104736328125	0		4.594810546875	0.6862904052734375	0		5.99484033203125	0.5534036254882813	0		-0.18990643310546876	5.93893017578125	0		
-0.017548860549926756	-0.005876484870910644	0		0.7000423583984375	-2.493365234375	0		-0.952085693359375	0.1734720764160156	0		-0.2524242706298828	-2.869817626953125	0		1.75593115234375	-0.1951928253173828	0		3.29632080078125	0.31188650512695315	0		4.594794921875	0.686403076171875	0		6.00141943359375	0.5844404907226562	0		-0.34199249267578125	5.9243544921875	0		
-0.014539765357971192	-0.0026888809204101563	0		0.6858760986328125	-2.496956298828125	0		-1.0122361450195312	0.1655904541015625	0		-0.30934054565429686	-2.85476611328125	0		1.7203671875	-0.16150572204589844	0		3.2801845703125	0.3042441711425781	0		4.59686865234375	0.6924617309570312	0		6.0170380859375	0.5753230590820313	0		-0.34087094116210936	5.92258154296875	0		
-0.01052656078338623	4.64818000793457E-4	0		0.6560408935546875	-2.47733984375	0		-0.94028173828125	0.16380274963378907	0		-0.2982775573730469	-2.8417041015625	0		1.7274609375	-0.1524520721435547	0		3.2954501953125	0.3241313171386719	0		4.59686181640625	0.6925230102539063	0		6.02362255859375	0.6062616577148437	0		-0.30563949584960937	5.92730126953125	0		
0.02053548812866211	0.006210838794708252	0		0.6869892578125	-2.473616455078125	0		-0.9362400512695312	0.1679686279296875	0		-0.30112274169921877	-2.822461181640625	0		1.72336328125	-0.1572618408203125	0		3.262185302734375	0.3066856384277344	0		4.58377978515625	0.6867442626953125	0		6.0100615234375	0.6067061767578125	0		-0.3215848083496094	5.918734375	0		
-0.010554691314697266	8.290849924087524E-4	0		0.6989201049804687	-2.471642333984375	0		-0.9602531127929688	0.16752017211914064	0		-0.2781336669921875	-2.8156103515625	0		1.7131787109375	-0.16900691223144532	0		3.2840283203125	0.2954240417480469	0		4.588681640625	0.6786793212890625	0		6.02569873046875	0.5974293212890625	0		-0.32137799072265627	5.91891796875	0		
-0.010543023109436035	9.81280028820038E-4	0		0.6499437255859375	-2.463810546875	0		-0.9642924194335938	0.16376669311523437	0		-0.32480572509765626	-2.7857724609375	0		1.7192987060546876	-0.16100782775878905	0		3.25505419921875	0.295869384765625	0		4.5677216796875	0.67895947265625	0		6.02640380859375	0.5938085327148438	0		-0.35422406005859375	5.91355859375	0		
0.007389872074127197	-0.006147777080535889	0		0.6847186889648438	-2.47521142578125	0		-0.9642498168945313	0.1639355010986328	0		-0.30992572021484377	-2.788845947265625	0		1.69627294921875	-0.16461265563964844	0		3.265318359375	0.3107236328125	0		4.5716826171875	0.6718505249023438	0		6.0344443359375	0.6210181274414063	0		-0.3398089294433594	5.92349951171875	0		
0.014557222366333007	8.574069738388062E-4	0		0.65594775390625	-2.456712890625	0		-1.0121422119140624	0.1667797088623047	0		-0.34263656616210936	-2.76524853515625	0		1.699390625	-0.1606186981201172	0		3.25110888671875	0.2909022521972656	0		4.5607783203125	0.6719296875	0		6.0411015625	0.6516829223632813	0		-0.30541455078125	5.92912744140625	0		
0.017703136444091796	0.0038974530696868894	0		0.684973388671875	-2.455078125	0		-0.9519080810546875	0.17503224182128907	0		-0.3124346618652344	-2.750587890625	0		1.696428466796875	-0.1645611114501953	0		3.267149169921875	0.28561834716796874	0		4.54580859375	0.6650424194335938	0		6.04674072265625	0.6269703979492187	0		-0.3182370300292969	5.9174150390625	0		
0.011742239952087402	-0.002954076051712036	0		0.6481466064453125	-2.445506591796875	0		-0.959861572265625	0.16825047302246093	0		-0.31138006591796874	-2.74852880859375	0		1.712501953125	-0.16880438232421874	0		3.23912939453125	0.27395269775390624	0		4.5467724609375	0.6509000854492187	0		6.04338427734375	0.6440601806640625	0		-0.18652723693847656	5.93857421875	0		
0.007875755786895752	-0.005859241962432861	0		0.6731908569335937	-2.44786279296875	0		-0.9637356567382812	0.164385498046875	0		-0.3789722900390625	-2.724486328125	0		1.6847044677734375	-0.16642886352539063	0		3.23115771484375	0.2629737548828125	0		4.539875	0.6438521118164062	0		6.0492626953125	0.6504059448242188	0		-0.3524825439453125	5.9140517578125	0		
-0.016897369384765625	-0.004480791091918945	0		0.651406494140625	-2.440555908203125	0		-0.9476090698242188	0.15820210266113283	0		-0.30786599731445313	-2.724501708984375	0		1.6898187255859376	-0.17255810546875	0		3.2261728515625	0.2489294891357422	0		4.53399365234375	0.6357688598632812	0		6.06506591796875	0.642521484375	0		-0.36901657104492186	5.91532763671875	0		
0.015424683570861816	0.001036067008972168	0		0.6556057739257812	-2.436653076171875	0		-1.01124072265625	0.16716891479492188	0		-0.361465576171875	-2.70570849609375	0		1.6959603271484376	-0.17872471618652344	0		3.227537841796875	0.25677420043945315	0		4.53425634765625	0.635577392578125	0		6.068900390625	0.6575234985351562	0		-0.30137570190429686	5.92634228515625	0		
-0.006253767013549805	0.005325305938720703	0		0.652009765625	-2.420655029296875	0		-0.9349382934570313	0.16905079650878907	0		-0.30116732788085937	-2.696615966796875	0		1.70112451171875	-0.18489680480957033	0		3.19148681640625	0.23515077209472657	0		4.5202470703125	0.615579345703125	0		6.069291015625	0.68992822265625	0		-0.35009161376953124	5.9130439453125	0		
